<svg data-v-423bf9ae="" xmlns="http://www.w3.org/2000/svg" viewBox="0 0 500 100" class="iconLeftSlogan"><!----><!----><!----><g data-v-423bf9ae="" id="3f589a30-eac1-4c10-8d64-58a212994201" fill="#1F1E1A" transform="matrix(4.392386436462402,0,0,4.392386436462402,114.81959533691406,-13.484623908996582)"><path d="M3.23 12.88L3.57 10.49L4.54 10.49L4.20 12.87L4.20 12.87Q4.05 13.87 3.58 14.36L3.58 14.36L3.58 14.36Q3.12 14.84 2.24 14.84L2.24 14.84L2.24 14.84Q0.64 14.84 0.64 13.37L0.64 13.37L0.64 13.37Q0.64 13.15 0.69 12.89L0.69 12.89L1.78 5.05L1.78 5.05Q2.04 3.07 3.89 3.07L3.89 3.07L3.89 3.07Q5.35 3.07 5.35 4.51L5.35 4.51L5.35 4.51Q5.33 4.62 5.33 4.75L5.33 4.75L5.33 4.75Q5.33 4.89 5.31 5.03L5.31 5.03L5.01 7.07L4.05 7.07L4.34 5.04L4.34 5.04Q4.35 4.96 4.35 4.89L4.35 4.89L4.35 4.89Q4.35 4.82 4.35 4.75L4.35 4.75L4.35 4.75Q4.35 4.44 4.21 4.29L4.21 4.29L4.21 4.29Q4.07 4.14 3.75 4.14L3.75 4.14L3.75 4.14Q3.00 4.14 2.87 5.04L2.87 5.04L1.76 12.88L1.76 12.88Q1.75 12.95 1.75 13.01L1.75 13.01L1.75 13.01Q1.75 13.06 1.75 13.13L1.75 13.13L1.75 13.13Q1.75 13.79 2.39 13.79L2.39 13.79L2.39 13.79Q2.79 13.79 2.98 13.57L2.98 13.57L2.98 13.57Q3.16 13.34 3.23 12.88L3.23 12.88ZM8.01 14.71L7.18 14.71L7.18 14.71Q7.18 14.56 7.20 14.41L7.20 14.41L7.20 14.41Q7.21 14.25 7.24 14.08L7.24 14.08L7.24 14.08Q6.99 14.43 6.65 14.62L6.65 14.62L6.65 14.62Q6.31 14.81 5.91 14.81L5.91 14.81L5.91 14.81Q4.97 14.81 4.97 13.75L4.97 13.75L4.97 13.75Q4.97 13.64 4.97 13.53L4.97 13.53L4.97 13.53Q4.97 13.43 5.00 13.31L5.00 13.31L6.01 6.05L6.97 6.05L5.98 13.16L5.98 13.16Q5.96 13.23 5.96 13.29L5.96 13.29L5.96 13.29Q5.96 13.34 5.96 13.40L5.96 13.40L5.96 13.40Q5.96 13.65 6.07 13.76L6.07 13.76L6.07 13.76Q6.17 13.86 6.41 13.86L6.41 13.86L6.41 13.86Q6.64 13.86 6.86 13.74L6.86 13.74L6.86 13.74Q7.08 13.62 7.22 13.34L7.22 13.34L8.25 6.05L9.21 6.05L8.01 14.71ZM10.01 14.71L9.04 14.71L10.25 6.05L11.06 6.05L11.06 6.05Q11.06 6.37 11.02 6.68L11.02 6.68L11.02 6.68Q11.26 6.30 11.54 6.13L11.54 6.13L11.54 6.13Q11.82 5.96 12.17 5.96L12.17 5.96L12.17 5.96Q12.33 5.96 12.46 6.02L12.46 6.02L12.31 7.10L12.31 7.10Q12.24 7.04 12.12 7.02L12.12 7.02L12.12 7.02Q12.00 7 11.89 7L11.89 7L11.89 7Q11.66 7 11.43 7.11L11.43 7.11L11.43 7.11Q11.20 7.21 11.02 7.52L11.02 7.52L10.01 14.71ZM12.91 14.71L11.94 14.71L13.15 6.05L13.96 6.05L13.96 6.05Q13.96 6.37 13.92 6.68L13.92 6.68L13.92 6.68Q14.15 6.30 14.43 6.13L14.43 6.13L14.43 6.13Q14.71 5.96 15.06 5.96L15.06 5.96L15.06 5.96Q15.23 5.96 15.36 6.02L15.36 6.02L15.20 7.10L15.20 7.10Q15.13 7.04 15.02 7.02L15.02 7.02L15.02 7.02Q14.90 7 14.78 7L14.78 7L14.78 7Q14.56 7 14.33 7.11L14.33 7.11L14.33 7.11Q14.10 7.21 13.92 7.52L13.92 7.52L12.91 14.71ZM17.51 9.77L17.81 7.69L17.81 7.69Q17.82 7.63 17.82 7.58L17.82 7.58L17.82 7.58Q17.82 7.53 17.82 7.49L17.82 7.49L17.82 7.49Q17.82 6.92 17.28 6.92L17.28 6.92L17.28 6.92Q16.66 6.92 16.56 7.69L16.56 7.69L16.27 9.77L17.51 9.77ZM17.05 13.09L17.32 11.19L18.23 11.19L17.96 13.09L17.96 13.09Q17.71 14.84 16.16 14.84L16.16 14.84L16.16 14.84Q14.87 14.84 14.87 13.55L14.87 13.55L14.87 13.55Q14.87 13.34 14.91 13.09L14.91 13.09L15.67 7.69L15.67 7.69Q15.79 6.80 16.24 6.36L16.24 6.36L16.24 6.36Q16.69 5.91 17.42 5.91L17.42 5.91L17.42 5.91Q18.75 5.91 18.75 7.24L18.75 7.24L18.75 7.24Q18.75 7.35 18.75 7.46L18.75 7.46L18.75 7.46Q18.75 7.57 18.72 7.69L18.72 7.69L18.33 10.47L16.17 10.47L15.81 13.09L15.81 13.09Q15.79 13.16 15.78 13.22L15.78 13.22L15.78 13.22Q15.78 13.27 15.78 13.33L15.78 13.33L15.78 13.33Q15.78 13.86 16.30 13.86L16.30 13.86L16.30 13.86Q16.95 13.86 17.05 13.09L17.05 13.09ZM21.92 14.71L20.96 14.71L21.95 7.56L21.95 7.56Q21.97 7.49 21.97 7.43L21.97 7.43L21.97 7.43Q21.97 7.38 21.97 7.32L21.97 7.32L21.97 7.32Q21.97 6.86 21.49 6.86L21.49 6.86L21.49 6.86Q21.28 6.86 21.06 6.99L21.06 6.99L21.06 6.99Q20.83 7.11 20.68 7.39L20.68 7.39L19.66 14.71L18.69 14.71L19.89 6.05L20.71 6.05L20.71 6.05Q20.71 6.36 20.66 6.71L20.66 6.71L20.66 6.71Q20.90 6.34 21.26 6.13L21.26 6.13L21.26 6.13Q21.62 5.91 22.02 5.91L22.02 5.91L22.02 5.91Q22.97 5.91 22.97 7L22.97 7L22.97 7Q22.97 7.24 22.93 7.50L22.93 7.50L21.92 14.71ZM25.28 13.09L25.55 11.17L26.45 11.17L26.18 13.10L26.18 13.10Q26.07 13.90 25.63 14.37L25.63 14.37L25.63 14.37Q25.19 14.84 24.39 14.84L24.39 14.84L24.39 14.84Q23.67 14.84 23.35 14.48L23.35 14.48L23.35 14.48Q23.03 14.11 23.03 13.48L23.03 13.48L23.03 13.48Q23.03 13.38 23.03 13.29L23.03 13.29L23.03 13.29Q23.03 13.19 23.06 13.08L23.06 13.08L23.81 7.70L23.81 7.70Q23.93 6.90 24.39 6.40L24.39 6.40L24.39 6.40Q24.85 5.91 25.65 5.91L25.65 5.91L25.65 5.91Q26.33 5.91 26.63 6.27L26.63 6.27L26.63 6.27Q26.94 6.64 26.94 7.24L26.94 7.24L26.94 7.24Q26.94 7.35 26.94 7.46L26.94 7.46L26.94 7.46Q26.94 7.57 26.91 7.69L26.91 7.69L26.64 9.56L25.77 9.56L26.04 7.67L26.04 7.67Q26.05 7.63 26.05 7.48L26.05 7.48L26.05 7.48Q26.05 6.90 25.51 6.90L25.51 6.90L25.51 6.90Q25.19 6.90 25.00 7.11L25.00 7.11L25.00 7.11Q24.81 7.32 24.75 7.69L24.75 7.69L24.00 13.08L24.00 13.08Q23.98 13.13 23.98 13.18L23.98 13.18L23.98 13.18Q23.98 13.23 23.98 13.27L23.98 13.27L23.98 13.27Q23.98 13.86 24.53 13.86L24.53 13.86L24.53 13.86Q25.19 13.86 25.28 13.09L25.28 13.09ZM26.29 16.66L26.42 15.69L26.42 15.69Q26.61 15.76 26.88 15.76L26.88 15.76L26.88 15.76Q27.17 15.76 27.36 15.48L27.36 15.48L27.36 15.48Q27.54 15.20 27.73 14.53L27.73 14.53L27.65 6.05L28.66 6.05L28.66 6.05Q28.66 6.54 28.65 7.14L28.65 7.14L28.65 7.14Q28.64 7.74 28.63 8.39L28.63 8.39L28.63 8.39Q28.62 9.03 28.60 9.67L28.60 9.67L28.60 9.67Q28.59 10.30 28.57 10.87L28.57 10.87L28.57 10.87Q28.55 11.44 28.53 11.88L28.53 11.88L28.53 11.88Q28.52 12.32 28.50 12.57L28.50 12.57L28.50 12.57Q28.56 12.32 28.67 11.88L28.67 11.88L28.67 11.88Q28.78 11.44 28.94 10.88L28.94 10.88L28.94 10.88Q29.09 10.32 29.26 9.67L29.26 9.67L29.26 9.67Q29.43 9.03 29.61 8.39L29.61 8.39L29.61 8.39Q29.79 7.74 29.96 7.14L29.96 7.14L29.96 7.14Q30.13 6.54 30.27 6.05L30.27 6.05L31.19 6.05L28.64 14.83L28.64 14.83Q28.52 15.29 28.36 15.64L28.36 15.64L28.36 15.64Q28.21 15.99 28.00 16.23L28.00 16.23L28.00 16.23Q27.79 16.48 27.50 16.60L27.50 16.60L27.50 16.60Q27.20 16.73 26.78 16.73L26.78 16.73L26.78 16.73Q26.50 16.73 26.29 16.66L26.29 16.66ZM33.81 14.71L30.69 14.71L32.30 3.19L35.35 3.19L35.20 4.27L33.21 4.27L32.65 8.32L34.05 8.32L33.89 9.38L32.49 9.38L31.89 13.66L33.95 13.66L33.81 14.71ZM38.77 14.71L37.62 14.71L37.62 14.71Q37.53 14.13 37.45 13.36L37.45 13.36L37.45 13.36Q37.37 12.59 37.29 11.86L37.29 11.86L37.29 11.86Q37.21 11.13 37.17 10.54L37.17 10.54L37.17 10.54Q37.13 9.95 37.13 9.72L37.13 9.72L37.13 9.72Q37.04 9.95 36.83 10.54L36.83 10.54L36.83 10.54Q36.62 11.12 36.36 11.85L36.36 11.85L36.36 11.85Q36.09 12.59 35.80 13.36L35.80 13.36L35.80 13.36Q35.50 14.13 35.25 14.71L35.25 14.71L34.16 14.71L36.69 8.57L36.02 3.19L37.16 3.19L37.16 3.19Q37.21 3.65 37.27 4.27L37.27 4.27L37.27 4.27Q37.32 4.89 37.37 5.48L37.37 5.48L37.37 5.48Q37.42 6.08 37.46 6.57L37.46 6.57L37.46 6.57Q37.49 7.07 37.51 7.32L37.51 7.32L37.51 7.32Q37.58 7.07 37.75 6.57L37.75 6.57L37.75 6.57Q37.93 6.08 38.14 5.48L38.14 5.48L38.14 5.48Q38.36 4.89 38.60 4.27L38.60 4.27L38.60 4.27Q38.84 3.65 39.02 3.19L39.02 3.19L40.12 3.19L37.91 8.54L38.77 14.71Z"></path></g><defs data-v-423bf9ae=""><linearGradient data-v-423bf9ae="" gradientTransform="rotate(25)" id="7cc05788-3dd2-4716-a4dc-0de3080de036" x1="0%" y1="0%" x2="100%" y2="0%"><stop data-v-423bf9ae="" offset="0%" style="stop-color: rgb(9, 120, 166); stop-opacity: 1;"></stop><stop data-v-423bf9ae="" offset="100%" style="stop-color: rgb(251, 148, 71); stop-opacity: 1;"></stop></linearGradient></defs><g data-v-423bf9ae="" id="2e6069af-4462-40a5-9699-a8a96187c937" transform="matrix(1.1096415519714355,0,0,1.1096415519714355,374.15216064453125,-283.4914245605469)" stroke="none" fill="url(#7cc05788-3dd2-4716-a4dc-0de3080de036)"><path d="M-263.363 311.56l-6.967-25.521-19.562-12.246 19.148-3.609.413-5.213s-14.309-6.192-25.391-8.708c-2.433-.553-4.653 8.025-6.731 7.853-2.199-.184-3.021-8.415-4.454-7.966-8.955 2.807-14.775 15.64-14.775 15.64l13.432 5.213-19.7 16.04v42.107l-9.217 20.85h87.984l-14.18-44.44zm-33.212 26.149c-11.64 0-21.076-9.436-21.076-21.076 0-11.639 9.436-21.075 21.076-21.075s21.076 9.436 21.076 21.075c0 11.64-9.437 21.076-21.076 21.076z"></path><path d="M-297.026 313.592c-1.286-.602-2.143-1.31-2.143-2.443 0-1.664.935-2.584 2.143-3.08v5.523zm1.831 5.983c1.323.602 2.258 1.416 2.258 2.727 0 1.31-.973 2.194-2.258 2.69v-5.417zm-1.831-18.304v2.62c-4.167.46-7.828 2.621-7.828 7.471 0 4.921 4.323 6.195 7.828 7.435v6.621c-.273.07-.506.07-.74.07-2.142 0-4.284-.602-6.153-1.521l-.507 4.461c2.688.601 4.011.956 6.971.956.117 0 .273 0 .429-.036v2.797h1.831v-2.902c4.478-.496 7.944-2.69 7.944-7.33 0-5.098-4.519-6.372-7.944-7.611v-6.55c.117-.035.194-.035.311-.035 1.908 0 3.816.39 5.53 1.062l.507-4.071c-1.948-.603-4.051-.886-6.348-.886v-2.548h-1.831v-.003z"></path></g><!----><g data-v-423bf9ae="" id="0e40db14-6fc0-412f-aad8-965592552be0" fill="#1F1E1A" transform="matrix(0.3747815489768982,0,0,0.3747815489768982,117.58199310302734,59.21295928955078)"><path d="M6.71 3.70L9.21 11.48L10.40 11.48L13.29 2.21L12.18 2.21L9.80 10.00L7.31 2.21L6.10 2.21L3.61 10.00L1.23 2.21L0.13 2.21L3.01 11.48L4.20 11.48ZM25.56 2.10C22.75 2.10 20.86 4.21 20.86 6.85C20.86 9.48 22.75 11.59 25.56 11.59C28.38 11.59 30.27 9.48 30.27 6.85C30.27 4.21 28.38 2.10 25.56 2.10ZM25.56 10.57C23.31 10.57 21.91 8.93 21.91 6.85C21.91 4.76 23.31 3.12 25.56 3.12C27.82 3.12 29.22 4.76 29.22 6.85C29.22 8.93 27.82 10.57 25.56 10.57ZM40.00 7.92L43.22 7.92L45.46 11.48L46.70 11.48L44.27 7.74C45.30 7.50 46.51 6.90 46.51 5.11C46.51 3.35 45.29 2.21 43.39 2.21L38.95 2.21L38.95 11.48L40.00 11.48ZM40.00 3.21L43.26 3.21C44.58 3.21 45.46 3.93 45.46 5.11C45.46 6.55 44.20 6.93 43.20 6.93L40.00 6.93ZM55.31 2.21L55.31 11.48L61.42 11.48L61.42 10.47L56.36 10.47L56.36 2.21ZM73.68 2.21L69.78 2.21L69.78 11.48L73.68 11.48C75.89 11.48 77.94 9.74 77.94 6.85C77.94 3.95 75.89 2.21 73.68 2.21ZM73.64 10.49L70.83 10.49L70.83 3.21L73.64 3.21C75.61 3.21 76.89 4.86 76.89 6.85C76.89 8.83 75.61 10.49 73.64 10.49ZM92.11 3.70L94.61 11.48L95.80 11.48L98.69 2.21L97.58 2.21L95.20 10.00L92.71 2.21L91.50 2.21L89.01 10.00L86.63 2.21L85.53 2.21L88.41 11.48L89.60 11.48ZM108.00 2.21L106.95 2.21L106.95 11.48L108.00 11.48ZM121.17 2.21L117.26 2.21L117.26 11.48L121.17 11.48C123.38 11.48 125.43 9.74 125.43 6.85C125.43 3.95 123.38 2.21 121.17 2.21ZM121.13 10.49L118.31 10.49L118.31 3.21L121.13 3.21C123.10 3.21 124.38 4.86 124.38 6.85C124.38 8.83 123.10 10.49 121.13 10.49ZM140.94 3.22L140.94 2.21L134.12 2.21L134.12 11.48L140.94 11.48L140.94 10.47L135.17 10.47L135.17 7.35L140.32 7.35L140.32 6.33L135.17 6.33L135.17 3.22ZM166.43 3.22L166.43 2.21L159.61 2.21L159.61 11.48L166.43 11.48L166.43 10.47L160.66 10.47L160.66 7.35L165.82 7.35L165.82 6.33L160.66 6.33L160.66 3.22ZM182.36 2.21L181.03 2.21L178.28 5.85L175.53 2.21L174.20 2.21L177.65 6.69L173.95 11.48L175.28 11.48L178.28 7.50L181.29 11.48L182.62 11.48L178.92 6.69ZM194.31 10.57C192.05 10.57 190.79 8.93 190.79 6.85C190.79 4.76 192.05 3.12 194.31 3.12C195.83 3.12 196.84 3.85 197.32 4.98L198.42 4.98C197.83 3.29 196.32 2.10 194.22 2.10C191.44 2.10 189.74 4.21 189.74 6.85C189.74 9.48 191.44 11.59 194.22 11.59C196.32 11.59 197.83 10.40 198.42 8.71L197.32 8.71C196.84 9.84 195.83 10.57 194.31 10.57ZM213.43 2.21L213.43 6.33L208.04 6.33L208.04 2.21L206.99 2.21L206.99 11.48L208.04 11.48L208.04 7.35L213.43 7.35L213.43 11.48L214.48 11.48L214.48 2.21ZM227.91 2.21L226.59 2.21L222.66 11.48L223.82 11.48L224.95 8.79L229.54 8.79L230.68 11.48L231.84 11.48ZM225.36 7.83L227.25 3.30L229.14 7.83ZM246.96 2.21L246.96 10.01L241.23 2.21L240.02 2.21L240.02 11.48L241.07 11.48L241.07 3.65L246.79 11.48L248.01 11.48L248.01 2.21ZM261.25 2.10C258.47 2.10 256.69 4.21 256.69 6.85C256.69 9.48 258.40 11.59 261.23 11.59C262.91 11.59 264.00 10.74 264.59 9.84L264.59 11.48L265.55 11.48L265.55 6.55L261.20 6.55L261.20 7.50L264.59 7.50C264.59 9.44 262.99 10.57 261.31 10.57C259.06 10.57 257.74 8.93 257.74 6.85C257.74 4.76 259.08 3.12 261.34 3.12C262.75 3.12 263.76 3.74 264.32 4.73L265.47 4.73C264.78 3.18 263.24 2.10 261.25 2.10ZM281.22 3.22L281.22 2.21L274.40 2.21L274.40 11.48L281.22 11.48L281.22 10.47L275.45 10.47L275.45 7.35L280.60 7.35L280.60 6.33L275.45 6.33L275.45 3.22ZM293.82 2.21L289.91 2.21L289.91 11.48L293.82 11.48C296.03 11.48 298.07 9.74 298.07 6.85C298.07 3.95 296.03 2.21 293.82 2.21ZM293.78 10.49L290.96 10.49L290.96 3.21L293.78 3.21C295.75 3.21 297.02 4.86 297.02 6.85C297.02 8.83 295.75 10.49 293.78 10.49ZM317.80 7.92L321.02 7.92L323.26 11.48L324.51 11.48L322.07 7.74C323.11 7.50 324.31 6.90 324.31 5.11C324.31 3.35 323.09 2.21 321.19 2.21L316.75 2.21L316.75 11.48L317.80 11.48ZM317.80 3.21L321.06 3.21C322.38 3.21 323.26 3.93 323.26 5.11C323.26 6.55 322.00 6.93 321.01 6.93L317.80 6.93ZM337.27 2.21L335.96 2.21L332.02 11.48L333.19 11.48L334.32 8.79L338.91 8.79L340.05 11.48L341.21 11.48ZM334.73 7.83L336.62 3.30L338.51 7.83ZM355.14 2.21L347.62 2.21L347.62 3.22L350.85 3.22L350.85 11.48L351.90 11.48L351.90 3.22L355.14 3.22ZM370.29 3.22L370.29 2.21L363.47 2.21L363.47 11.48L370.29 11.48L370.29 10.47L364.52 10.47L364.52 7.35L369.67 7.35L369.67 6.33L364.52 6.33L364.52 3.22Z"></path></g></svg>